<svg width="101" height="104" viewBox="0 0 101 104" fill="none" xmlns="http://www.w3.org/2000/svg">
<g filter="url(#filter0_d_306_1814)">
<path fill-rule="evenodd" clip-rule="evenodd" d="M29.9688 47.5839V41.3333C29.9688 35.888 32.1319 30.6658 35.9822 26.8155C39.8326 22.9651 45.0548 20.802 50.5 20.802C55.9452 20.802 61.1674 22.9651 65.0178 26.8155C68.8681 30.6658 71.0313 35.888 71.0313 41.3333V47.5839C74.4227 47.8363 76.6279 48.4751 78.243 50.0902C80.9167 52.7608 80.9167 57.0648 80.9167 65.6666C80.9167 74.2684 80.9167 78.5724 78.243 81.243C75.5725 83.9166 71.2685 83.9166 62.6667 83.9166H38.3333C29.7315 83.9166 25.4276 83.9166 22.757 81.243C20.0833 78.5724 20.0833 74.2684 20.0833 65.6666C20.0833 57.0648 20.0833 52.7608 22.757 50.0902C24.3691 48.4751 26.5773 47.8363 29.9688 47.5839ZM34.5313 41.3333C34.5313 37.0981 36.2137 33.0364 39.2084 30.0416C42.2031 27.0469 46.2648 25.3645 50.5 25.3645C54.7352 25.3645 58.7969 27.0469 61.7916 30.0416C64.7863 33.0364 66.4688 37.0981 66.4688 41.3333V47.4287C65.3038 47.4166 64.0385 47.4166 62.6667 47.4166H38.3333C36.9585 47.4166 35.6962 47.4166 34.5313 47.4287V41.3333Z" fill="url(#paint0_linear_306_1814)"/>
</g>
<path d="M36.8809 49.7585L37.3437 49.724V49.2599V42.6667C37.3437 37.0558 39.5727 31.6746 43.5403 27.707C47.5078 23.7395 52.889 21.5105 58.5 21.5105C64.111 21.5105 69.4921 23.7395 73.4597 27.707C77.4273 31.6746 79.6562 37.0558 79.6562 42.6667V49.2599V49.724L80.1191 49.7585C83.6641 50.0224 85.8368 50.6843 87.4096 52.2571L87.4098 52.2573C88.7113 53.5573 89.3902 55.2732 89.7353 57.839C90.0822 60.4192 90.0833 63.7827 90.0833 68.3334C90.0833 72.8841 90.0822 76.2477 89.7353 78.8278C89.3902 81.3936 88.7113 83.1095 87.4098 84.4095L87.4094 84.4099C86.1094 85.7114 84.3935 86.3903 81.8277 86.7354C79.2476 87.0824 75.884 87.0834 71.3333 87.0834H45.6667C41.1159 87.0834 37.7524 87.0824 35.1723 86.7354C32.6065 86.3903 30.8905 85.7114 29.5905 84.4099L29.5901 84.4095C28.2886 83.1095 27.6098 81.3936 27.2647 78.8278C26.9177 76.2477 26.9167 72.8841 26.9167 68.3334C26.9167 63.7827 26.9177 60.4192 27.2647 57.839C27.6098 55.2732 28.2886 53.5573 29.5901 52.2573L29.5907 52.2568C31.16 50.6844 33.3355 50.0224 36.8809 49.7585ZM75.3385 49.5962L75.8437 49.6015V49.0962V42.6667C75.8437 38.0669 74.0164 33.6554 70.7639 30.4029C67.5113 27.1503 63.0998 25.323 58.5 25.323C53.9001 25.323 49.4887 27.1503 46.2361 30.4029C42.9835 33.6554 41.1562 38.0669 41.1562 42.6667V49.0962V49.6015L41.6615 49.5962C42.8871 49.5834 44.2158 49.5834 45.6667 49.5834H71.3333C72.7809 49.5834 74.1128 49.5834 75.3385 49.5962Z" fill="url(#paint1_linear_306_1814)" fill-opacity="0.77" stroke="url(#paint2_linear_306_1814)"/>
<defs>
<filter id="filter0_d_306_1814" x="-6" y="-3" width="113" height="113" filterUnits="userSpaceOnUse" color-interpolation-filters="sRGB">
<feFlood flood-opacity="0" result="BackgroundImageFix"/>
<feColorMatrix in="SourceAlpha" type="matrix" values="0 0 0 0 0 0 0 0 0 0 0 0 0 0 0 0 0 0 127 0" result="hardAlpha"/>
<feOffset/>
<feGaussianBlur stdDeviation="10"/>
<feComposite in2="hardAlpha" operator="out"/>
<feColorMatrix type="matrix" values="0 0 0 0 1 0 0 0 0 1 0 0 0 0 1 0 0 0 0.3 0"/>
<feBlend mode="normal" in2="BackgroundImageFix" result="effect1_dropShadow_306_1814"/>
<feBlend mode="normal" in="SourceGraphic" in2="effect1_dropShadow_306_1814" result="shape"/>
</filter>
<linearGradient id="paint0_linear_306_1814" x1="50.5" y1="20.802" x2="50.5" y2="83.9166" gradientUnits="userSpaceOnUse">
<stop stop-color="#1A53FF"/>
<stop offset="1" stop-color="#001657"/>
</linearGradient>
<linearGradient id="paint1_linear_306_1814" x1="58.5" y1="21.0105" x2="58.5" y2="87.5834" gradientUnits="userSpaceOnUse">
<stop stop-color="#C7D5FF"/>
<stop offset="1" stop-color="#1A53FF" stop-opacity="0"/>
</linearGradient>
<linearGradient id="paint2_linear_306_1814" x1="58.5" y1="21.0105" x2="58.5" y2="87.5834" gradientUnits="userSpaceOnUse">
<stop stop-color="white" stop-opacity="0.5"/>
<stop offset="1" stop-color="#999999" stop-opacity="0"/>
</linearGradient>
</defs>
</svg>
