<svg width="126" height="120" viewBox="0 0 126 120" fill="none" xmlns="http://www.w3.org/2000/svg">
<g filter="url(#filter0_d_59_901)">
<path d="M101.207 97.7969C100.933 98.2768 100.538 98.6753 100.063 98.9523C99.5877 99.2293 99.0487 99.3751 98.5 99.375H23.5C22.9517 99.3744 22.4132 99.2282 21.9386 98.9509C21.464 98.6737 21.07 98.2752 20.7961 97.7955C20.5222 97.3158 20.3781 96.7717 20.3782 96.2179C20.3783 95.6642 20.5227 95.1202 20.7969 94.6406C26.7461 84.2526 35.9141 76.8039 46.6133 73.2728C41.321 70.0907 37.2092 65.242 34.9093 59.4713C32.6095 53.7005 32.2488 47.3269 33.8826 41.329C35.5164 35.3312 39.0544 30.0408 43.9532 26.2704C48.8521 22.5 54.8409 20.458 61 20.458C67.1591 20.458 73.1479 22.5 78.0468 26.2704C82.9456 30.0408 86.4836 35.3312 88.1174 41.329C89.7512 47.3269 89.3905 53.7005 87.0907 59.4713C84.7908 65.242 80.679 70.0907 75.3867 73.2728C86.0859 76.8039 95.2539 84.2526 101.203 94.6406C101.478 95.1201 101.623 95.6642 101.624 96.2182C101.624 96.7722 101.481 97.3167 101.207 97.7969Z" fill="url(#paint0_linear_59_901)"/>
</g>
<g filter="url(#filter1_bi_59_901)">
<path d="M57.4324 74.6401L56.3862 74.9819C44.9645 78.7141 35.1732 86.5878 28.8166 97.5772L57.4324 74.6401ZM57.4324 74.6401L56.4867 74.077M57.4324 74.6401L56.4867 74.077M56.4867 74.077C50.8721 70.7346 46.5099 65.6416 44.07 59.5801C41.6302 53.5186 41.2475 46.8238 42.9808 40.5237C44.7141 34.2236 48.4675 28.6667 53.6646 24.7064C58.8618 20.746 65.2153 18.6011 71.7494 18.6011C78.2835 18.6011 84.637 20.746 89.8342 24.7064C95.0313 28.6667 98.7847 34.2236 100.518 40.5237C102.251 46.8238 101.869 53.5186 99.4287 59.5801C96.9889 65.6416 92.6267 70.7346 87.0121 74.077L86.0663 74.6401M56.4867 74.077L86.0663 74.6401M86.0663 74.6401L87.1126 74.9819M86.0663 74.6401L87.1126 74.9819M87.1126 74.9819C98.5344 78.7141 108.326 86.588 114.682 97.5776L114.683 97.5778M87.1126 74.9819L114.683 97.5778M114.683 97.5778C114.935 98.0139 115.068 98.5088 115.069 99.0127C115.07 99.5166 114.938 100.012 114.686 100.449C114.434 100.885 114.072 101.247 113.635 101.499M114.683 97.5778L113.635 101.499M113.635 101.499C113.199 101.751 112.704 101.884 112.2 101.883H31.2998M113.635 101.499L31.2998 101.883M31.2998 101.883C30.7962 101.883 30.3015 101.75 29.8655 101.498M31.2998 101.883L29.8655 101.498M29.8655 101.498L29.6151 101.931M29.8655 101.498L29.6151 101.931M29.6151 101.931L29.8655 101.498C29.4294 101.246 29.0675 100.883 28.8158 100.447M29.6151 101.931L28.8158 100.447M28.8158 100.447C28.5642 100.01 28.4318 99.5156 28.4319 99.0119M28.8158 100.447L28.4319 99.0119M28.4319 99.0119C28.4321 98.5084 28.5646 98.0137 28.8164 97.5776L28.4319 99.0119Z" fill="url(#paint1_linear_59_901)" fill-opacity="0.77" stroke="url(#paint2_linear_59_901)"/>
</g>
<defs>
<filter id="filter0_d_59_901" x="-9" y="-9" width="140" height="141" filterUnits="userSpaceOnUse" color-interpolation-filters="sRGB">
<feFlood flood-opacity="0" result="BackgroundImageFix"/>
<feColorMatrix in="SourceAlpha" type="matrix" values="0 0 0 0 0 0 0 0 0 0 0 0 0 0 0 0 0 0 127 0" result="hardAlpha"/>
<feOffset/>
<feGaussianBlur stdDeviation="10"/>
<feComposite in2="hardAlpha" operator="out"/>
<feColorMatrix type="matrix" values="0 0 0 0 1 0 0 0 0 1 0 0 0 0 1 0 0 0 0.3 0"/>
<feBlend mode="normal" in2="BackgroundImageFix" result="effect1_dropShadow_59_901"/>
<feBlend mode="normal" in="SourceGraphic" in2="effect1_dropShadow_59_901" result="shape"/>
</filter>
<filter id="filter1_bi_59_901" x="13.816" y="4" width="115.867" height="121.867" filterUnits="userSpaceOnUse" color-interpolation-filters="sRGB">
<feFlood flood-opacity="0" result="BackgroundImageFix"/>
<feGaussianBlur in="BackgroundImageFix" stdDeviation="2"/>
<feComposite in2="SourceAlpha" operator="in" result="effect1_backgroundBlur_59_901"/>
<feBlend mode="normal" in="SourceGraphic" in2="effect1_backgroundBlur_59_901" result="shape"/>
<feColorMatrix in="SourceAlpha" type="matrix" values="0 0 0 0 0 0 0 0 0 0 0 0 0 0 0 0 0 0 127 0" result="hardAlpha"/>
<feOffset dy="10"/>
<feGaussianBlur stdDeviation="10"/>
<feComposite in2="hardAlpha" operator="arithmetic" k2="-1" k3="1"/>
<feColorMatrix type="matrix" values="0 0 0 0 1 0 0 0 0 1 0 0 0 0 1 0 0 0 0.15 0"/>
<feBlend mode="normal" in2="shape" result="effect2_innerShadow_59_901"/>
</filter>
<linearGradient id="paint0_linear_59_901" x1="61.001" y1="20.458" x2="61.001" y2="99.375" gradientUnits="userSpaceOnUse">
<stop stop-color="#7094FF"/>
<stop offset="1" stop-color="#0030C2"/>
</linearGradient>
<linearGradient id="paint1_linear_59_901" x1="71.7504" y1="18.1011" x2="71.7504" y2="102.383" gradientUnits="userSpaceOnUse">
<stop stop-color="#C7D5FF"/>
<stop offset="1" stop-color="#1A53FF" stop-opacity="0"/>
</linearGradient>
<linearGradient id="paint2_linear_59_901" x1="71.7504" y1="18.1011" x2="71.7504" y2="102.383" gradientUnits="userSpaceOnUse">
<stop stop-color="white" stop-opacity="0.5"/>
<stop offset="1" stop-color="#999999" stop-opacity="0"/>
</linearGradient>
</defs>
</svg>
